<?xml version="1.0" encoding="UTF-8" standalone="no"?>
<!-- Created with Inkscape (http://www.inkscape.org/) -->

<svg
   width="370.41666mm"
   height="161.90901mm"
   viewBox="0 0 370.41666 161.90901"
   version="1.1"
   id="svg358"
   inkscape:version="1.1.1 (3bf5ae0d25, 2021-09-20)"
   sodipodi:docname="logo.svg"
   xmlns:inkscape="http://www.inkscape.org/namespaces/inkscape"
   xmlns:sodipodi="http://sodipodi.sourceforge.net/DTD/sodipodi-0.dtd"
   xmlns="http://www.w3.org/2000/svg"
   xmlns:svg="http://www.w3.org/2000/svg">
  <sodipodi:namedview
     id="namedview360"
     pagecolor="#ffffff"
     bordercolor="#666666"
     borderopacity="1.0"
     inkscape:pageshadow="2"
     inkscape:pageopacity="0.0"
     inkscape:pagecheckerboard="0"
     inkscape:document-units="mm"
     showgrid="false"
     inkscape:zoom="0.77771465"
     inkscape:cx="1004.8673"
     inkscape:cy="491.82564"
     inkscape:window-width="2560"
     inkscape:window-height="1377"
     inkscape:window-x="1914"
     inkscape:window-y="1432"
     inkscape:window-maximized="1"
     inkscape:current-layer="layer1" />
  <defs
     id="defs355" />
  <g
     inkscape:label="Layer 1"
     inkscape:groupmode="layer"
     id="layer1"
     transform="translate(161.05369,-18.385705)">
    <g
       id="g205"
       transform="matrix(0.26458333,0,0,0.26458333,-161.05369,-40.782929)">
      <rect
         id="ee-background"
         x="0"
         y="223.62949"
         width="1400"
         height="555.23627"
         style="fill:#ffffff;fill-opacity:1;stroke-width:0.752707" />
    </g>
    <path
       class="st0"
       d="m 192.45305,59.487464 c -4.81734,0 -8.74678,3.929436 -8.74678,8.746774 0,2.002502 1.58689,5.856372 4.60953,11.145998 1.64357,2.890402 3.32491,5.497432 4.13725,6.763164 0.73677,-1.1146 2.15363,-3.324907 3.62717,-5.856371 0.0189,-0.01889 0.0189,-0.03778 0.0378,-0.05667 0.0945,-0.151132 0.18892,-0.302264 0.26448,-0.472288 0.0567,-0.09446 0.11335,-0.207807 0.17003,-0.302264 0.0189,-0.03778 0.0378,-0.07557 0.0756,-0.113349 2.81484,-4.930687 4.38284,-8.614534 4.55286,-10.711493 0.0189,-0.13224 0.0189,-0.264481 0.0189,-0.396722 0,-4.817338 -3.92943,-8.746774 -8.74677,-8.746774 z m -0.13224,13.224065 c -2.0025,0 -3.64607,-1.624671 -3.64607,-3.646064 0,-2.021393 1.62467,-3.646063 3.64607,-3.646063 2.02139,0 3.64606,1.62467 3.64606,3.646063 0,2.021393 -1.62467,3.646064 -3.64606,3.646064 z"
       style="fill:#ff0d19;stroke-width:0.188915"
       id="path3" />
    <path
       class="st1"
       d="m 204.77032,65.192703 c -0.18892,-0.113349 -0.41561,-0.13224 -0.62342,-0.01889 l -2.49368,1.265732 c -0.62342,-4.930687 -4.83623,-8.765666 -9.93694,-8.765666 -5.1196,0 -9.3513,3.85387 -9.93694,8.803449 l -2.64481,-1.322407 c 0,0 -0.0189,0 -0.0189,0 -0.0189,-0.01889 -0.0378,-0.01889 -0.0756,-0.01889 -0.0189,0 -0.0378,-0.01889 -0.0567,-0.01889 -0.0189,0 -0.0378,0 -0.0756,-0.01889 -0.0189,0 -0.0378,0 -0.0567,0 0,0 -0.0189,0 -0.0189,0 -0.0189,0 -0.0378,0 -0.0567,0 -0.0189,0 -0.0378,0 -0.0567,0 -0.0189,0 -0.0567,0.01889 -0.0756,0.01889 -0.0189,0 -0.0189,0 -0.0378,0.01889 l -12.27949,4.72288 c -0.24559,0.09446 -0.41561,0.321156 -0.41561,0.585637 v 25.616903 c 0,0.207806 0.11335,0.415613 0.28337,0.528962 0.17003,0.113349 0.39673,0.151132 0.58564,0.05667 l 11.03265,-4.382833 13.69635,5.044036 c 0.0189,0 0.0378,0.01889 0.0567,0.01889 0.0189,0 0.0378,0.01889 0.0378,0.01889 0.0378,0 0.0756,0.01889 0.11335,0.01889 0.0378,0 0.0756,0 0.11335,-0.01889 0.0189,0 0.0378,0 0.0378,-0.01889 0.0189,0 0.0378,0 0.0567,-0.01889 l 12.6951,-4.515073 c 0.24559,-0.09446 0.41561,-0.321156 0.41561,-0.604529 V 65.740558 c 0.0378,-0.226699 -0.0756,-0.434505 -0.26448,-0.547855 z M 191.71628,58.93961 c 4.81734,0 8.74677,3.929436 8.74677,8.746774 0,0.132241 0,0.264481 -0.0189,0.396722 -0.18891,2.096959 -1.75691,5.780806 -4.55286,10.711493 -0.0189,0.03778 -0.0378,0.07557 -0.0756,0.113349 -0.0567,0.113349 -0.11335,0.207806 -0.17003,0.302264 -0.0944,0.151132 -0.18891,0.321156 -0.26448,0.472288 -0.0189,0.01889 -0.0189,0.03778 -0.0378,0.05667 -1.47354,2.531463 -2.8904,4.72288 -3.62717,5.856371 -0.83123,-1.24684 -2.49368,-3.85387 -4.13724,-6.763164 -3.00376,-5.289626 -4.60954,-9.143497 -4.60954,-11.145998 0,-4.817338 3.92944,-8.746774 8.74678,-8.746774 z m 0.6612,36.89514 v -4.2317 c 0,-0.358939 -0.28337,-0.642312 -0.64231,-0.642312 -0.35894,0 -0.64231,0.283373 -0.64231,0.642312 v 4.2317 l -12.63843,-4.666205 v -8.954581 c 0,-0.358939 -0.28337,-0.642312 -0.64231,-0.642312 -0.35894,0 -0.64231,0.283373 -0.64231,0.642312 v 8.973472 l -9.99362,3.96722 V 81.571652 c 0.0945,-0.07557 0.18892,-0.170024 0.28338,-0.24559 0.26448,-0.226698 0.30226,-0.62342 0.0756,-0.887901 -0.0945,-0.113349 -0.2267,-0.188915 -0.37783,-0.207807 v -9.332411 l 11.01376,-4.231701 v 3.797196 c 0,0.358939 0.28337,0.642311 0.64231,0.642311 0.35894,0 0.64231,-0.283372 0.64231,-0.642311 V 66.7607 l 2.21031,1.095708 c 0,0.07557 0,0.170024 0.0189,0.24559 0,0.01889 0,0.03778 0,0.05667 0.0189,0.113349 0.0189,0.24559 0.0378,0.358939 0,0.05667 0.0189,0.09446 0.0189,0.151132 0.0189,0.113349 0.0378,0.226699 0.0567,0.340048 0.34005,1.700237 1.22795,4.005002 2.70149,6.876513 0.0756,0.151132 0.15113,0.302265 0.24559,0.472288 0.0378,0.07557 0.0756,0.151132 0.11335,0.226699 2.6637,5.119602 6.06417,10.182529 6.30976,10.522577 0.11335,0.170023 0.32116,0.283373 0.52897,0.283373 0.11335,0 0.2078,-0.01889 0.30226,-0.07557 0.0945,-0.05667 0.17003,-0.11335 0.2267,-0.207807 0.2267,-0.340048 3.62717,-5.365192 6.27198,-10.484794 0.0567,-0.09446 0.0945,-0.207807 0.15114,-0.302265 0.0567,-0.113349 0.13224,-0.245589 0.18891,-0.358939 1.49243,-2.928185 2.39923,-5.251842 2.72038,-6.970971 0.0189,-0.09446 0.0378,-0.170024 0.0378,-0.24559 0.0189,-0.07557 0.0189,-0.13224 0.0378,-0.207806 0.0189,-0.113349 0.0378,-0.226699 0.0378,-0.340048 0,-0.03778 0,-0.05667 0,-0.09446 0,-0.09446 0.0189,-0.188916 0.0189,-0.283373 l 2.05918,-1.039034 v 14.225315 c -0.0945,0.09446 -0.18892,0.188916 -0.28338,0.264482 -0.26448,0.24559 -0.28337,0.642312 -0.0378,0.906793 0.0945,0.09446 0.20781,0.170023 0.32116,0.188915 v 9.426869 z"
       style="fill:#5b5050;stroke-width:0.188915"
       id="path5" />
    <path
       class="st1"
       d="m 191.60293,73.448298 c 2.70149,0 4.91179,-2.210308 4.91179,-4.911795 0,-2.701488 -2.2103,-4.911796 -4.91179,-4.911796 -2.70149,0 -4.9118,2.210308 -4.9118,4.911796 0,2.701487 2.19142,4.911795 4.9118,4.911795 z m 0,-8.557859 c 2.0025,0 3.64606,1.624671 3.64606,3.646064 0,2.021392 -1.62467,3.646063 -3.64606,3.646063 -2.0025,0 -3.64606,-1.624671 -3.64606,-3.646063 0,-2.021393 1.62467,-3.646064 3.64606,-3.646064 z"
       style="fill:#5b5050;stroke-width:0.188915"
       id="path7" />
    <path
       class="st1"
       d="m 195.96687,85.690004 c -0.20781,0.05667 -0.41561,0.09446 -0.62342,0.13224 -0.34005,0.05667 -0.56674,0.396722 -0.51007,0.73677 0.0567,0.302264 0.32116,0.510071 0.62342,0.510071 0.0378,0 0.0756,0 0.11335,-0.01889 0.2267,-0.03778 0.47229,-0.09446 0.69899,-0.151132 0.34004,-0.07557 0.54785,-0.434505 0.47228,-0.774552 -0.0756,-0.302265 -0.4345,-0.510071 -0.77455,-0.434505 z"
       style="fill:#5b5050;stroke-width:0.188915"
       id="path9" />
    <path
       class="st1"
       d="m 200.63308,83.555262 c -0.43451,0.302264 -0.8879,0.566745 -1.32241,0.812335 -0.30226,0.170024 -0.41561,0.547854 -0.24559,0.86901 0.11335,0.207807 0.34005,0.321156 0.54785,0.321156 0.0945,0 0.20781,-0.01889 0.30227,-0.07557 0.47229,-0.264481 0.94457,-0.547854 1.41686,-0.86901 0.28338,-0.188915 0.37783,-0.585637 0.17003,-0.887901 -0.18892,-0.283373 -0.56675,-0.358939 -0.86901,-0.170024 z"
       style="fill:#5b5050;stroke-width:0.188915"
       id="path11" />
    <path
       class="st1"
       d="m 170.34997,77.69889 c -0.37783,0.226699 -0.75566,0.472288 -1.15238,0.73677 -0.28338,0.188915 -0.35894,0.585637 -0.17003,0.887901 0.13224,0.188915 0.32116,0.283373 0.52896,0.283373 0.13225,0 0.24559,-0.03778 0.35894,-0.113349 0.35894,-0.24559 0.73677,-0.49118 1.09571,-0.698986 0.30227,-0.170024 0.39672,-0.566746 0.2267,-0.86901 -0.18892,-0.321156 -0.58564,-0.415614 -0.8879,-0.226699 z"
       style="fill:#5b5050;stroke-width:0.188915"
       id="path13" />
    <path
       class="st1"
       d="m 174.63834,75.96087 c -0.45339,0.09446 -0.90679,0.207807 -1.36019,0.358939 -0.34004,0.113349 -0.51007,0.472288 -0.39672,0.812336 0.0945,0.264481 0.34005,0.434505 0.60453,0.434505 0.0756,0 0.13224,-0.01889 0.20781,-0.03778 0.41561,-0.132241 0.81233,-0.24559 1.20905,-0.321156 0.34005,-0.07557 0.56675,-0.396722 0.51008,-0.73677 -0.0945,-0.358938 -0.43451,-0.585637 -0.77456,-0.510071 z"
       style="fill:#5b5050;stroke-width:0.188915"
       id="path15" />
    <path
       class="st1"
       d="m 185.85991,82.610686 c -0.0756,-0.05667 -0.15114,-0.113349 -0.2267,-0.188915 -0.2267,-0.170024 -0.43451,-0.340048 -0.60453,-0.510071 0,0 0,0 -0.0189,-0.01889 -0.0378,-0.03778 -0.0756,-0.07557 -0.11335,-0.113349 -0.24559,-0.24559 -0.6612,-0.226698 -0.90679,0.01889 -0.24559,0.24559 -0.2267,0.661204 0.0189,0.906793 0.0378,0.03778 0.0756,0.07557 0.13224,0.11335 0.2267,0.226698 0.47229,0.415613 0.71788,0.604528 0.0756,0.05667 0.15113,0.113349 0.2078,0.170024 0.11335,0.09446 0.26448,0.132241 0.39673,0.132241 0.18891,0 0.37783,-0.07557 0.49117,-0.24559 0.2267,-0.24559 0.18892,-0.642312 -0.0944,-0.86901 z"
       style="fill:#5b5050;stroke-width:0.188915"
       id="path17" />
    <path
       class="st1"
       d="m 179.36122,76.433158 c -0.45339,-0.207806 -0.90679,-0.358938 -1.37908,-0.453396 -0.34004,-0.07557 -0.68009,0.132241 -0.75566,0.472288 -0.0756,0.340047 0.13224,0.680095 0.47229,0.755661 0.39672,0.09446 0.77455,0.207807 1.13349,0.37783 0.0756,0.03778 0.17002,0.05667 0.26448,0.05667 0.24559,0 0.47229,-0.132241 0.58564,-0.377831 0.15113,-0.302264 0,-0.680094 -0.32116,-0.831227 z"
       style="fill:#5b5050;stroke-width:0.188915"
       id="path19" />
    <path
       class="st1"
       d="m 181.94936,78.530117 c -0.24559,-0.264481 -0.64231,-0.283373 -0.90679,-0.03778 -0.26448,0.24559 -0.28337,0.642312 -0.0378,0.906793 0.30226,0.321156 0.58563,0.661203 0.86901,0.982359 0.13224,0.151132 0.30226,0.226699 0.47228,0.226699 0.15114,0 0.30227,-0.05668 0.41562,-0.151133 0.26448,-0.226698 0.30226,-0.62342 0.0567,-0.887901 -0.26448,-0.340047 -0.56674,-0.698986 -0.86901,-1.039034 z"
       style="fill:#5b5050;stroke-width:0.188915"
       id="path21" />
    <path
       class="st1"
       d="m 188.88255,84.764319 c -0.18891,-0.13224 -0.39672,-0.24559 -0.58564,-0.358939 -0.30226,-0.188915 -0.69898,-0.09446 -0.86901,0.207807 -0.18891,0.302264 -0.0944,0.680095 0.20781,0.86901 0.18892,0.113349 0.37783,0.24559 0.56675,0.358939 0.11334,0.07557 0.22669,0.09446 0.34004,0.09446 0.20781,0 0.41562,-0.09446 0.52897,-0.283372 0.18891,-0.302265 0.11334,-0.698987 -0.18892,-0.887902 z"
       style="fill:#5b5050;stroke-width:0.188915"
       id="path23" />
    <path
       d="m -129.23968,73.019771 1.27979,4.391695 h -2.55958 z"
       class="st0"
       style="fill:#acd36e;stroke-width:0.134715"
       id="path25" />
    <path
       class="st0"
       d="m -126.81482,66.270571 c -0.0269,0 -0.0404,-0.01347 -0.0674,-0.01347 -0.16166,-0.02694 -0.33679,-0.06736 -0.49844,-0.0943 -0.0404,0 -0.0808,-0.01347 -0.12125,-0.01347 -0.16166,-0.02694 -0.30984,-0.04041 -0.4715,-0.05389 -0.0539,0 -0.10777,-0.01347 -0.14819,-0.01347 -0.14818,-0.01347 -0.2829,-0.02694 -0.43108,-0.02694 -0.0674,0 -0.12124,0 -0.1886,-0.01347 -0.12125,0 -0.25596,-0.01347 -0.39067,-0.01347 -0.0674,0 -0.14819,0 -0.21555,0 -0.13471,0 -0.25596,0 -0.39067,0.01347 -0.0674,0 -0.12124,0 -0.1886,0.01347 -0.14819,0.01347 -0.2829,0.01347 -0.43109,0.02694 -0.0539,0 -0.10777,0.01347 -0.14818,0.01347 -0.16166,0.01347 -0.30985,0.04041 -0.4715,0.05389 -0.0404,0 -0.0808,0.01347 -0.12125,0.01347 -0.16165,0.02694 -0.33678,0.05389 -0.49844,0.0943 -0.0269,0 -0.0404,0.01347 -0.0674,0.01347 -5.37511,1.118131 -9.43002,5.887027 -9.43002,11.598924 0,6.533657 5.30776,11.841411 11.84141,11.841411 6.53366,0 11.84141,-5.307754 11.84141,-11.841411 0.0135,-5.698426 -4.02796,-10.480793 -9.40307,-11.598924 z m -2.42487,22.052775 c -5.76578,0 -10.45385,-4.688067 -10.45385,-10.453851 0,-5.765783 4.68807,-10.45385 10.45385,-10.45385 5.76579,0 10.45385,4.688067 10.45385,10.45385 0,5.765784 -4.68806,10.453851 -10.45385,10.453851 z"
       style="fill:#acd36e;stroke-width:0.134715"
       id="path27" />
    <path
       class="st1"
       d="m -126.63969,65.112026 v -1.791704 c 0,-0.848702 -0.51192,-1.576161 -1.25285,-1.886004 0.71399,-0.55233 1.18549,-1.427975 1.18549,-2.411391 0,-1.683932 -1.36062,-3.044549 -3.04455,-3.044549 -1.68393,0 -3.04455,1.360617 -3.04455,3.044549 0,0.983416 0.4715,1.84559 1.18549,2.411391 -0.74093,0.309843 -1.25285,1.037302 -1.25285,1.886004 v 1.791704 c -5.5233,1.401031 -9.63209,6.412413 -9.63209,12.366797 0,7.032101 5.72537,12.75747 12.75747,12.75747 7.0321,0 12.75747,-5.725369 12.75747,-12.75747 -0.0269,-5.954384 -4.13574,-10.965766 -9.65903,-12.366797 z m -3.12538,-8.231061 c 1.18549,0 2.14196,0.956474 2.14196,2.141962 0,1.185488 -0.95647,2.141962 -2.14196,2.141962 -1.18549,0 -2.14196,-0.956474 -2.14196,-2.141962 0,-1.185488 0.96994,-2.141962 2.14196,-2.141962 z m -2.20932,8.04246 v -1.603103 c 0,-0.633159 0.51191,-1.145074 1.14507,-1.145074 h 2.12849 c 0.63316,0 1.14508,0.511915 1.14508,1.145074 v 1.603103 c -0.0135,0 -0.0135,0 -0.0269,0 -0.17513,-0.02694 -0.33678,-0.05389 -0.51191,-0.08083 0,0 -0.0135,0 -0.0135,0 -0.0404,0 -0.0943,-0.01347 -0.13472,-0.01347 v -1.603103 c 0,-0.255958 -0.20207,-0.45803 -0.45803,-0.45803 -0.25596,0 -0.45803,0.202072 -0.45803,0.45803 v 1.522274 c -0.0135,0 -0.0269,0 -0.0404,0 -0.0269,0 -0.0539,0 -0.0808,0 -0.17513,0 -0.33679,-0.01347 -0.51192,-0.01347 -0.17512,0 -0.33678,0 -0.51191,0.01347 -0.0269,0 -0.0539,0 -0.0808,0 -0.0135,0 -0.0269,0 -0.0404,0 v -1.522274 c 0,-0.255958 -0.20208,-0.45803 -0.45803,-0.45803 -0.25596,0 -0.45803,0.202072 -0.45803,0.45803 v 1.603103 c -0.0404,0 -0.0943,0.01347 -0.13472,0.01347 0,0 -0.0135,0 -0.0135,0 -0.17513,0.02694 -0.33679,0.05389 -0.51191,0.08083 0.0404,0 0.0404,0 0.0269,0 z m 2.20932,24.396809 c -6.53366,0 -11.84141,-5.307754 -11.84141,-11.841411 0,-5.698426 4.05491,-10.480793 9.43002,-11.598924 0.0269,0 0.0404,-0.01347 0.0674,-0.01347 0.16166,-0.02694 0.33679,-0.06736 0.49845,-0.0943 0.0404,0 0.0808,-0.01347 0.12124,-0.01347 0.16166,-0.02694 0.30984,-0.04041 0.4715,-0.05389 0.0539,0 0.10777,-0.01347 0.14819,-0.01347 0.14818,-0.01347 0.2829,-0.02694 0.43108,-0.02694 0.0674,0 0.12125,0 0.1886,-0.01347 0.12125,0 0.25596,-0.01347 0.39068,-0.01347 0.0674,0 0.14818,0 0.21554,0 0.13471,0 0.25596,0 0.39067,0.01347 0.0674,0 0.12125,0 0.1886,0.01347 0.14819,0.01347 0.2829,0.01347 0.43109,0.02694 0.0539,0 0.10777,0.01347 0.14819,0.01347 0.16165,0.01347 0.30984,0.04041 0.4715,0.05389 0.0404,0 0.0808,0.01347 0.12124,0.01347 0.16166,0.02694 0.33679,0.05389 0.49844,0.0943 0.0269,0 0.0404,0.01347 0.0674,0.01347 5.37511,1.118131 9.43002,5.887026 9.43002,11.598924 -0.0135,6.533657 -5.3347,11.841411 -11.86835,11.841411 z"
       style="fill:#ff6e7f;stroke-width:0.134715"
       id="path29" />
    <path
       class="st1"
       d="m -129.76507,67.024973 c -5.76579,0 -10.45385,4.688067 -10.45385,10.45385 0,5.765784 4.68806,10.453851 10.45385,10.453851 5.76578,0 10.45385,-4.688067 10.45385,-10.453851 0.0135,-5.765783 -4.68807,-10.45385 -10.45385,-10.45385 z m 0.45803,19.991642 v -1.441446 c 0,-0.255958 -0.20208,-0.45803 -0.45803,-0.45803 -0.25596,0 -0.45803,0.202072 -0.45803,0.45803 v 1.441446 c -4.91708,-0.229015 -8.86422,-4.189623 -9.09324,-9.120177 h 1.41451 c 0.25595,0 0.45803,-0.202071 0.45803,-0.458029 0,-0.255958 -0.20208,-0.45803 -0.45803,-0.45803 h -1.41451 c 0.24249,-4.890139 4.18963,-8.837276 9.09324,-9.06629 v 1.38756 c 0,0.255957 0.20207,0.458029 0.45803,0.458029 0.25595,0 0.45803,-0.202072 0.45803,-0.458029 v -1.38756 c 4.90361,0.229014 8.85074,4.16268 9.09323,9.06629 h -1.4145 c -0.25596,0 -0.45803,0.202072 -0.45803,0.45803 0,0.255958 0.20207,0.458029 0.45803,0.458029 h 1.4145 c -0.22901,4.930554 -4.17615,8.891162 -9.09323,9.120177 z"
       style="fill:#ffe357;stroke-width:0.134715"
       id="path31" />
    <path
       class="st1"
       d="m -127.44798,77.317166 -1.87253,-6.439357 c -0.0539,-0.1886 -0.22902,-0.323315 -0.43109,-0.323315 -0.20207,0 -0.3772,0.134715 -0.43109,0.323315 l -1.886,6.4663 c 0,0.01347 0,0.01347 0,0.02694 0,0.01347 -0.0135,0.04041 -0.0135,0.05388 0,0.01347 0,0.04041 0,0.05389 0,0.01347 0,0.04041 0,0.05389 0,0.01347 0,0.04041 0.0135,0.05389 0,0.01347 0,0.01347 0,0.02694 l 1.886,6.466299 c 0.0539,0.188601 0.22902,0.323315 0.43109,0.323315 0.20207,0 0.3772,-0.134714 0.43109,-0.323315 l 1.886,-6.466299 c 0,0 0,0 0,0 0.0135,-0.02694 0.0135,-0.05389 0.0135,-0.0943 0,0 0,0 0,-0.01347 0,-0.01347 0,-0.01347 0,-0.01347 0,-0.06736 -0.0135,-0.121243 -0.0269,-0.175129 z m -2.31709,-4.688067 1.27979,4.405166 h -2.55958 z m 0,9.699449 -1.27979,-4.405167 h 2.55958 z"
       style="fill:#144fff;stroke-width:0.134715"
       id="path33" />
    <path
       class="st0"
       d="m 156.12191,128.18585 c 6.75489,8.05089 10.91779,18.2225 11.27124,27.49084 h -6.40144 c -0.2749,-8.99343 -3.49526,-18.73304 -8.91488,-26.86248 -3.61308,-5.45889 -7.8938,-9.77888 -12.4887,-12.68506 5.96944,2.12073 11.70325,6.28363 16.53378,12.0567 z"
       style="fill:#acd36e;stroke-width:0.392726"
       id="path35" />
    <path
       class="st0"
       d="m 104.16422,128.18585 c 4.83053,-5.77307 10.60361,-9.8967 16.53378,-12.09597 -4.5949,2.94545 -8.87562,7.22617 -12.4887,12.68506 -5.41962,8.16871 -8.639978,17.86905 -8.914887,26.86248 h -6.401439 c 0.353454,-9.26834 4.516353,-19.43995 11.271246,-27.45157 z"
       style="fill:#acd36e;stroke-width:0.392726"
       id="path37" />
    <path
       class="st0"
       d="m 125.33217,134.4302 c 1.61017,-1.13891 3.22035,-1.68872 4.79126,-1.68872 1.5709,0 3.18108,0.58909 4.79126,1.68872 1.68872,1.17818 3.37744,3.02399 4.79126,5.22326 0.62836,1.02109 1.25672,2.27781 1.76727,3.65235 h -4.00581 c -0.74618,0 -1.33527,0.58909 -1.33527,1.33527 0,0.74618 0.58909,1.33527 1.33527,1.33527 h 4.90908 c 0.35345,1.17818 0.70691,2.35636 0.94254,3.37745 h -26.46975 c 0.27491,-1.02109 0.58909,-2.19927 0.94254,-3.37745 h 14.64869 c 0.74618,0 1.33527,-0.58909 1.33527,-1.33527 0,-0.74618 -0.58909,-1.33527 -1.33527,-1.33527 h -13.74542 c 0.51055,-1.37454 1.09964,-2.63126 1.76727,-3.65235 1.53163,-2.19927 3.18108,-4.04508 4.86981,-5.22326 z"
       style="fill:#75ffd8;stroke-width:0.392726"
       id="path39" />
    <path
       class="st1"
       d="m 177.32913,154.73415 h -8.7578 c -0.31418,-9.93598 -4.71271,-20.85377 -11.8996,-29.4152 -7.8938,-9.38616 -18.10469,-14.76651 -28.00139,-14.76651 -9.8967,0 -20.10759,5.38035 -28.00138,14.76651 -7.186896,8.56143 -11.624703,19.47922 -11.899612,29.4152 h -8.757796 c -0.74618,0 -1.33527,0.58909 -1.33527,1.33527 0,0.74618 0.58909,1.33527 1.33527,1.33527 h 97.396118 c 0.74618,0 1.33527,-0.58909 1.33527,-1.33527 0,-0.74618 -0.7069,-1.33527 -1.41381,-1.33527 z m -48.69806,-41.00063 c 7.14762,1.64945 14.33451,7.22617 19.75413,15.3556 5.14472,7.73671 8.16871,16.92651 8.48289,25.40939 h -56.43477 c 0.27491,-8.48288 3.33817,-17.67268 8.48289,-25.40939 5.38035,-8.12943 12.56724,-13.74542 19.71486,-15.3556 z m 25.99848,13.27415 c 6.75489,8.05089 10.91779,18.2225 11.27124,27.49084 h -6.44071 c -0.27491,-8.99343 -3.49526,-18.73304 -8.91488,-26.86248 -3.61309,-5.45889 -7.8938,-9.77888 -12.4887,-12.68505 5.96944,2.15999 11.70324,6.32289 16.57305,12.05669 z m -51.99696,0 c 4.83053,-5.77307 10.60361,-9.8967 16.53377,-12.09597 -4.59489,2.94545 -8.87561,7.22617 -12.48869,12.68506 -5.41963,8.16871 -8.639981,17.86905 -8.914889,26.86248 h -6.401439 c 0.353454,-9.22907 4.516352,-19.40068 11.271248,-27.45157 z"
       style="fill:#5b5050;stroke:#ff4d9d;stroke-width:0.392726"
       id="path41" />
    <path
       class="st1"
       d="m 112.68638,150.29634 c 0.23564,0.31418 0.62836,0.51055 1.02109,0.51055 h 29.80792 c 0,0 0,0 0,0 0.74618,0 1.33527,-0.58909 1.33527,-1.33527 0,-0.15709 -0.0393,-0.27491 -0.0785,-0.39273 -0.864,-3.77017 -2.35636,-8.87561 -4.35926,-12.01742 -1.61018,-2.51345 -3.53454,-4.5949 -5.49817,-5.96944 -2.04218,-1.45309 -4.1629,-2.16 -6.32289,-2.16 -2.12073,0 -4.24145,0.74618 -6.3229,2.16 -1.96363,1.37454 -3.88799,3.45599 -5.49817,5.96944 -2.04217,3.14181 -3.49526,8.32579 -4.39853,12.09597 -0.0393,0.432 0.0393,0.82472 0.31418,1.1389 z m 11.15343,-17.00505 c 1.61017,-1.1389 3.22035,-1.68872 4.79126,-1.68872 1.5709,0 3.18108,0.58909 4.79126,1.68872 1.68872,1.17818 3.37744,3.024 4.79126,5.22326 0.62836,1.02109 1.25672,2.27782 1.76727,3.65236 h -4.00581 c -0.74618,0 -1.33527,0.58909 -1.33527,1.33527 0,0.74618 0.58909,1.33527 1.33527,1.33527 h 4.90908 c 0.35345,1.17818 0.70691,2.35635 0.94254,3.37744 h -26.46975 c 0.27491,-1.02109 0.58909,-2.19926 0.94254,-3.37744 h 14.64869 c 0.74618,0 1.33527,-0.58909 1.33527,-1.33527 0,-0.74618 -0.58909,-1.33527 -1.33527,-1.33527 h -13.74542 c 0.51055,-1.37454 1.09964,-2.63127 1.76727,-3.65236 1.49236,-2.23854 3.14181,-4.04508 4.86981,-5.22326 z"
       style="fill:#5b5050;stroke-width:0.392726"
       id="path43" />
    <path
       class="st0"
       d="m -88.300732,94.478689 c 0,0 -0.0061,-0.0073 -0.0061,-0.0073 -0.0305,-0.03636 -0.05982,-0.08608 -0.09031,-0.12244 -0.04269,-0.0509 -0.07202,-0.100626 -0.114711,-0.151525 -0.09641,-0.129712 -0.206196,-0.260595 -0.302609,-0.390307 -0.0305,-0.03636 -0.06099,-0.07271 -0.09149,-0.10907 -0.115882,-0.138155 -0.224493,-0.282409 -0.340375,-0.420564 -0.09758,-0.116341 -0.20127,-0.239953 -0.318324,-0.364738 -0.0183,-0.02181 -0.04269,-0.0509 -0.06099,-0.07271 -0.0122,-0.01454 -0.0183,-0.02181 -0.0305,-0.03636 0,0 0,0 -0.0061,-0.0073 -1.776936,-2.015089 -3.840733,-3.678079 -5.952591,-4.792884 2.585174,0.172761 5.262818,1.519059 7.353848,3.716628 0.08046,0.08116 0.153649,0.168412 0.234109,0.249569 0.0183,0.02181 0.04269,0.0509 0.06099,0.07271 0.08539,0.101799 0.178045,0.197498 0.263432,0.299296 0.06709,0.07999 0.13418,0.159969 0.207369,0.247225 0.0183,0.02181 0.03659,0.04363 0.05489,0.06544 0.05489,0.06544 0.09641,0.129711 0.151305,0.195153 0.0122,0.01454 0.0305,0.03636 0.04269,0.0509 0.05372,0.07881 0.108611,0.144255 0.162331,0.223067 0.0061,0.0073 0.0122,0.01454 0.0183,0.02181 1.861405,2.588367 2.663526,5.656472 2.195681,8.303341 -0.604113,-2.329922 -1.781981,-4.723629 -3.430854,-6.970006 z"
       style="fill:#acd36e;stroke-width:0.0949056"
       id="path45" />
    <path
       class="st1"
       d="m -84.629635,102.47352 c 0.580482,-1.62652 0.658275,-3.512677 0.220722,-5.437282 -0.346288,-1.505672 -0.992585,-2.970281 -1.897371,-4.329559 l 0.581705,-0.487925 c 0.581705,-0.487926 0.657901,-1.357001 0.169976,-1.938706 -0.487926,-0.581705 -1.357001,-0.657901 -1.938706,-0.169976 l -0.559892,0.469629 c -2.5576,-2.561831 -5.898837,-3.9461 -8.969779,-3.649471 -0.149418,0.01385 -0.266932,0.124801 -0.285925,0.264604 -0.02627,0.145902 0.0556,0.287812 0.191891,0.346917 2.356976,1.008301 4.729702,2.759006 6.744263,4.983553 l -13.859129,11.624826 c -0.56716,0.47573 -0.65438,1.31689 -0.20657,1.89508 0.006,0.007 0.0122,0.0145 0.0183,0.0218 0,0 0.006,0.007 0.006,0.007 0.006,0.007 0.006,0.007 0.0122,0.0145 0.48792,0.5817 1.357,0.6579 1.9387,0.16997 l 13.815502,-11.58823 c 1.800415,2.515654 2.991432,5.220397 3.394531,7.76848 0.0087,0.0547 0.03073,0.11048 0.06733,0.15411 0,0 0,0 0,0 0.115882,0.13816 0.310339,0.14847 0.448494,0.0326 0.0509,-0.0427 0.08233,-0.0938 0.10766,-0.15224 z m -2.985843,-11.431038 0.530806,-0.445232 c 0.312667,-0.26226 0.78063,-0.221231 1.04289,0.09144 0.26226,0.312667 0.221232,0.780631 -0.09144,1.042891 l -0.538077,0.451331 c -0.0061,-0.0073 -0.0183,-0.02181 -0.0244,-0.02908 -0.05372,-0.07881 -0.114711,-0.151526 -0.175701,-0.224239 -0.0305,-0.03636 -0.06099,-0.07271 -0.08422,-0.115169 -0.09149,-0.10907 -0.175701,-0.224238 -0.267187,-0.333308 -0.07319,-0.08726 -0.146377,-0.174512 -0.219566,-0.261768 -0.0244,-0.02908 -0.04879,-0.05817 -0.07319,-0.08725 -0.04504,-0.02416 -0.06943,-0.05324 -0.09993,-0.0896 z m -15.262412,14.721878 c -0.23268,0.19517 -0.54489,0.22169 -0.80292,0.0913 l 7.678515,-6.440622 c 0.138155,-0.115883 0.155738,-0.316438 0.03986,-0.454593 -0.115882,-0.138155 -0.316438,-0.155739 -0.454593,-0.03986 l -7.656702,6.422325 c -0.0519,-0.2538 0.0335,-0.53599 0.24439,-0.71286 l 13.866403,-11.630931 c 0.06099,0.07271 0.128081,0.152697 0.189072,0.22541 0.140278,0.167241 0.274458,0.32721 0.407465,0.500549 0.06099,0.07271 0.108611,0.144254 0.169602,0.216967 0.05489,0.06544 0.102512,0.136983 0.157403,0.202425 l -13.844585,11.61263 z m 14.556262,-11.738854 c 0,0 -0.0061,-0.0073 -0.0061,-0.0073 -0.0305,-0.03636 -0.05982,-0.08608 -0.09031,-0.12244 -0.04269,-0.0509 -0.07202,-0.100626 -0.11471,-0.151525 -0.09641,-0.129712 -0.206196,-0.260595 -0.302609,-0.390307 -0.0305,-0.03636 -0.06099,-0.07271 -0.09149,-0.10907 -0.115882,-0.138155 -0.224493,-0.282409 -0.340376,-0.420564 -0.09758,-0.116341 -0.201269,-0.239953 -0.318324,-0.364738 -0.0183,-0.02181 -0.04269,-0.0509 -0.06099,-0.07271 -0.0122,-0.01454 -0.0183,-0.02181 -0.0305,-0.03636 0,0 0,0 -0.0061,-0.0073 -1.776936,-2.015089 -3.840732,-3.67808 -5.95259,-4.792885 2.585173,0.172762 5.262818,1.51906 7.353848,3.716629 0.08046,0.08116 0.153649,0.168412 0.234109,0.249569 0.0183,0.02181 0.04269,0.0509 0.06099,0.07271 0.08539,0.101799 0.178046,0.197498 0.263433,0.299296 0.06709,0.07999 0.134179,0.159969 0.207368,0.247225 0.0183,0.02181 0.03659,0.04363 0.05489,0.06544 0.05489,0.06544 0.09641,0.129711 0.151304,0.195153 0.0122,0.01454 0.0305,0.03636 0.04269,0.0509 0.05372,0.07881 0.108611,0.144254 0.16233,0.223067 0.0061,0.0073 0.0122,0.01454 0.0183,0.02181 1.861406,2.588367 2.663527,5.656472 2.195682,8.303344 -0.604114,-2.329925 -1.788081,-4.730903 -3.430854,-6.970009 z"
       style="fill:#7a7fff;stroke-width:0.0949056"
       id="path47" />
    <path
       class="st1"
       d="m -93.222325,96.674456 c -0.115882,-0.138156 -0.316438,-0.155739 -0.454593,-0.03986 l -2.006883,1.683343 c -0.138155,0.115883 -0.155739,0.316439 -0.03986,0.454594 0.115883,0.138155 0.316438,0.155738 0.454593,0.03986 l 2.006884,-1.683343 c 0.138155,-0.115883 0.155738,-0.316438 0.03986,-0.454593 z"
       style="fill:#5b5050;stroke-width:0.0949056"
       id="path49" />
    <path
       class="st0"
       d="m 15.341847,66.950591 20.146452,27.034128 -8.781787,-2.668974 c -1.205343,-0.344384 -2.582878,0.0861 -3.271646,1.205343 L 15.858423,104.31623 7.5932113,92.434992 C 6.9044437,91.40184 5.5269085,90.971361 4.3215652,91.315745 l -9.5566504,3.099454 z"
       style="fill:#38ff67;stroke-width:0.860959"
       id="path51" />
    <path
       class="st0"
       d="M -42.084152,58.513188 -9.9703625,101.56116 -28.3088,96.051022 c -1.205343,-0.344384 -2.582878,0.0861 -3.271646,1.205343 L -42.34244,114.30336 -54.309777,97.170269 c -0.688767,-1.033151 -2.066303,-1.463631 -3.271646,-1.119247 l -16.616518,5.337948 z"
       style="fill:#33ff58;stroke-width:0.860959"
       id="path53" />
    <path
       class="st1"
       d="M 88.523404,146.15886 H 80.086001 L 14.308695,57.910516 c -0.516575,-0.688768 -1.377535,-1.205343 -2.32459,-1.205343 0,0 0,0 0,0 -0.947056,0 -1.808015,0.430479 -2.3245909,1.119247 L -13.672488,88.818962 -43.117303,49.300921 c -0.516576,-0.688768 -1.377535,-1.205343 -2.324591,-1.205343 0,0 0,0 0,0 -0.947055,0 -1.808015,0.430479 -2.324591,1.119247 l -72.664985,96.685755 h -8.78178 c -1.63583,0 -2.92727,1.29144 -2.92727,2.92726 0,1.63582 1.29144,2.92726 2.92727,2.92726 H 88.437308 c 1.635823,0 2.927263,-1.29144 2.927263,-2.92726 0.0861,-1.37754 -1.205344,-2.66898 -2.841167,-2.66898 z m -59.492301,0 -36.2463951,-48.644207 7.9208274,-2.496783 9.5566507,13.68926 c 0.516575,0.77486 1.463631,1.20534 2.410686,1.20534 0,0 0,0 0.0861,0 0.947056,0 1.894111,-0.51658 2.410687,-1.37754 L 23.77925,94.931774 37.985082,99.236572 72.940037,146.07277 H 29.031103 Z M 11.984105,64.453808 32.130557,91.487936 23.34877,88.818962 c -1.205343,-0.344384 -2.582878,0.0861 -3.271646,1.205343 L 12.586776,101.81945 4.3215652,89.938209 C 3.6327976,88.905058 2.2552624,88.474578 1.0499191,88.818962 l -9.5566505,3.099454 z m -57.339903,-8.437403 32.113789,43.047975 -18.338437,-5.510141 c -1.205343,-0.344384 -2.582878,0.0861 -3.271646,1.205344 L -45.614086,111.80658 -57.581423,94.673487 c -0.688767,-1.033152 -2.066303,-1.463632 -3.271646,-1.119248 l -16.616518,5.337949 z m -38.226602,50.796615 22.298851,-7.145968 13.258777,18.941108 c 0.516575,0.77486 1.463631,1.20534 2.410686,1.20534 0,0 0,0 0.0861,0 0.947056,0 1.894111,-0.51657 2.410687,-1.37753 l 11.967337,-18.855014 23.762482,7.145964 29.272623,39.25975 H -113.11331 Z"
       style="fill:#5b5050;stroke-width:0.860959"
       id="path55" />
    <path
       class="st1"
       d="m 5.4408125,33.114882 h 3.2716461 c 1.6358234,0 2.9272624,-1.291439 2.9272624,-2.927262 0,-1.635823 -1.291439,-2.927262 -2.9272624,-2.927262 H 5.4408125 c -1.635823,0 -2.9272623,1.291439 -2.9272623,2.927262 0,1.635823 1.2914393,2.927262 2.9272623,2.927262 z"
       style="fill:#5b5050;stroke-width:0.860959"
       id="path57" />
    <path
       class="st1"
       d="m -49.316212,33.114882 c 7.404252,0.0861 14.808504,0.0861 22.212755,0.0861 7.404252,0 14.8946,0 22.2127555,-0.0861 1.6358231,0 2.9272623,-1.291439 2.8411664,-2.927262 0,-1.635823 -1.2914393,-2.841166 -2.9272623,-2.841166 -14.7224076,0.0861 -29.7031026,0.0861 -44.4255106,0 -1.635823,0 -2.927262,1.291439 -2.927262,2.841166 0.0861,1.549727 1.377535,2.927262 3.013358,2.927262 z"
       style="fill:#5b5050;stroke-width:0.860959"
       id="path59" />
    <path
       class="st1"
       d="m 41.515016,44.22126 h 3.271646 c 1.635823,0 2.927262,-1.291439 2.927262,-2.927262 0,-1.635823 -1.291439,-2.927263 -2.927262,-2.927263 h -3.271646 c -1.635823,0 -2.927263,1.29144 -2.927263,2.927263 0,1.635823 1.29144,2.927262 2.927263,2.927262 z"
       style="fill:#5b5050;stroke-width:0.860959"
       id="path61" />
    <path
       class="st1"
       d="m -13.242009,38.452831 c 0,0 0,0 0,0 -1.635823,0 -2.927262,1.291439 -2.927262,2.841167 0,1.635823 1.291439,2.927262 2.841166,2.927262 7.4042521,0.0861 14.8085039,0.0861 22.2127555,0.0861 7.4042515,0 14.8945995,0 22.2127555,-0.0861 1.635823,0 2.927262,-1.291439 2.841166,-2.927262 0,-1.635823 -1.291439,-2.841167 -2.927262,-2.841167 -14.550216,0.0861 -29.5309112,0.0861 -44.253319,0 z"
       style="fill:#5b5050;stroke-width:0.860959"
       id="path63" />
    <path
       class="st1"
       d="m -30.547295,38.452831 c -1.635823,0 -2.927262,1.291439 -2.927262,2.927263 0,1.635823 1.291439,2.927262 2.927262,2.927262 h 3.271647 c 1.635823,0 2.927262,-1.291439 2.927262,-2.927262 0,-1.635824 -1.291439,-2.927263 -2.927262,-2.927263 z"
       style="fill:#5b5050;stroke-width:0.860959"
       id="path65" />
    <path
       class="st1"
       d="m -85.390415,44.22126 c 7.404252,0.0861 14.808504,0.0861 22.212755,0.0861 7.404252,0 14.8946,0 22.212755,-0.0861 1.635824,0 2.927263,-1.291439 2.841167,-2.927262 0,-1.549728 -1.291439,-2.841167 -2.927262,-2.841167 0,0 0,0 0,0 -14.722408,0.0861 -29.703103,0.0861 -44.425511,0 -1.635823,0 -2.927262,1.291439 -2.927262,2.841167 0.172192,1.635823 1.463631,2.927262 3.013358,2.927262 z"
       style="fill:#5b5050;stroke-width:0.860959"
       id="path67" />
    <path
       d="m 178.62772,125.28579 h -8.2792 v -1.2054 h 12.52983 v 1.2054 z"
       class="st0"
       style="fill:#acd36e;stroke-width:0.158605"
       id="path69" />
    <path
       class="st0"
       d="m 181.11783,143.08131 -1.03094,-1.33228 c -0.0952,-0.12689 -0.25377,-0.20619 -0.42823,-0.20619 h -1.0468 c -0.30135,0 -0.53926,0.23791 -0.53926,0.53926 v 0.99921 h -6.97863 v -1.60191 c 0,-0.65028 0.34893,-1.11024 0.66614,-1.11024 h 1.33228 8.91363 c 0,0 0,0 0,0 0,0 0,0 0,0 h 19.08023 c 0.26963,0 0.55512,0.31721 0.63442,0.82475 -3.31485,-0.0159 -6.67729,-0.0159 -9.97628,0 -0.30135,0 -0.53926,0.23791 -0.5234,0.53926 0,0.30135 0.23791,0.5234 0.53926,0.5234 0,0 0,0 0,0 3.31485,-0.0159 6.67729,-0.0159 10.008,0 v 0.82474 z"
       style="fill:#e626ff;stroke-width:0.158605"
       id="path71" />
    <path
       class="st1"
       d="m 179.42075,136.18198 c 0.0952,0.1586 0.26963,0.25377 0.45996,0.25377 0.0952,0 0.19032,-0.0317 0.28549,-0.0793 0.25376,-0.1586 0.33307,-0.47581 0.17446,-0.72958 -0.20619,-0.34893 -0.42823,-0.66614 -0.66614,-0.98335 -0.17447,-0.23791 -0.50754,-0.28549 -0.74545,-0.11103 -0.23791,0.17447 -0.28549,0.50754 -0.11102,0.74545 0.20619,0.28549 0.41237,0.58684 0.6027,0.90405 z"
       style="fill:#5b5050;stroke-width:0.158605"
       id="path73" />
    <path
       class="st1"
       d="m 176.1852,132.81954 c 0.30135,0.19033 0.6027,0.41238 0.87233,0.63443 0.0952,0.0793 0.22205,0.12688 0.33307,0.12688 0.15861,0 0.30135,-0.0634 0.41237,-0.19033 0.19033,-0.22204 0.15861,-0.57098 -0.0793,-0.74544 -0.30135,-0.25377 -0.63442,-0.49168 -0.96749,-0.71373 -0.25377,-0.1586 -0.57098,-0.0952 -0.74545,0.15861 -0.14274,0.23791 -0.0793,0.57098 0.17447,0.72958 z"
       style="fill:#5b5050;stroke-width:0.158605"
       id="path75" />
    <path
       class="st1"
       d="m 172.87035,131.3921 c 0.34893,0.0793 0.71372,0.19032 1.04679,0.30135 0.0634,0.0159 0.11103,0.0317 0.17447,0.0317 0.22205,0 0.42823,-0.14275 0.50753,-0.3648 0.0952,-0.28549 -0.0476,-0.58684 -0.33307,-0.682 -0.36479,-0.12688 -0.7613,-0.23791 -1.14196,-0.33307 -0.28549,-0.0634 -0.57097,0.11102 -0.65028,0.39651 -0.0793,0.28549 0.11103,0.58684 0.39652,0.65029 z"
       style="fill:#5b5050;stroke-width:0.158605"
       id="path77" />
    <path
       class="st1"
       d="m 201.40346,139.17962 c -0.0159,-2.72801 -0.34893,-4.86919 -1.85568,-6.40766 -1.53848,-1.58605 -4.17133,-2.4108 -8.51711,-2.63285 l -5.74152,-1.53847 c -0.0159,0 -0.0317,0 -0.0476,-0.0159 -0.38065,-0.0793 -0.71373,-0.33307 -0.87233,-0.682 l -1.07852,-2.71216 c 0,0 0,0 0,-0.0159 0.0317,-0.0952 0.0476,-0.19032 0.0476,-0.30135 v -3.52104 c 0,-0.57098 -0.45995,-1.04679 -1.04679,-1.04679 H 169.7141 c -0.57098,0 -1.0468,0.45995 -1.0468,1.04679 v 4.01272 2.37908 c 0,0.61856 0.30135,1.17368 0.74545,1.53847 v 7.97786 c 0,0.77716 0.30135,1.42744 0.82475,1.90326 -0.49168,0.38065 -0.82475,1.06266 -0.82475,1.85568 v 2.14118 c 0,0.30135 0.23791,0.53926 0.53926,0.53926 h 8.04129 c 0.30135,0 0.53926,-0.23791 0.53926,-0.53926 v -0.99922 h 0.25377 l 1.03093,1.33229 c 0.0952,0.12688 0.25377,0.20619 0.42824,0.20619 h 21.44345 c 0.30135,0 0.53926,-0.23791 0.53926,-0.53926 v -2.14118 c -0.0159,-0.79302 -0.33307,-1.45917 -0.82475,-1.83982 z m -31.65764,-11.43545 v -1.83982 h 7.73994 c -0.0952,1.52261 -1.364,2.72801 -2.91834,2.72801 h -3.93341 c -0.49168,0 -0.88819,-0.39651 -0.88819,-0.88819 z m 8.26334,-2.91834 h -8.2792 v -1.2054 h 12.52983 v 1.2054 z m 4.25063,-3.47346 v 1.2054 h -12.52983 v -1.2054 z m -11.62578,8.34265 h 3.93341 c 2.14118,0 3.88584,-1.68122 3.981,-3.80653 h 3.74309 c 0.0476,0 0.0952,0 0.14274,-0.0159 l 0.63442,1.57019 -2.14117,1.15782 c -0.25377,0.14274 -0.34893,0.45996 -0.20619,0.72958 0.0952,0.17447 0.28549,0.28549 0.47582,0.28549 0.0793,0 0.17447,-0.0159 0.25377,-0.0634 l 2.04601,-1.11024 c 0.26963,0.49168 0.69786,0.87233 1.22126,1.06266 l -1.41159,1.82396 c -0.17446,0.23791 -0.14274,0.57098 0.0952,0.74545 0.0952,0.0793 0.20618,0.11102 0.33307,0.11102 0.1586,0 0.31721,-0.0634 0.42823,-0.20618 l 1.69708,-2.1729 1.82396,0.49168 -1.06265,2.61699 c -0.11103,0.26963 0.0159,0.58684 0.28549,0.69786 0.0634,0.0317 0.12688,0.0317 0.20618,0.0317 0.20619,0 0.41238,-0.12688 0.49168,-0.33307 l 1.11024,-2.74387 2.12531,0.57098 -0.72959,2.45838 c -0.0793,0.28549 0.0793,0.58684 0.3648,0.66614 0.0476,0.0159 0.0952,0.0159 0.1586,0.0159 0.23791,0 0.4441,-0.14274 0.50754,-0.38065 l 0.79303,-2.66457 c 3.47346,0.26963 5.69393,0.99921 6.91519,2.2522 1.2054,1.23712 1.50676,3.02936 1.55434,5.345 h -18.60442 c -0.0793,-0.25377 -0.1586,-0.49168 -0.25377,-0.72959 -0.11102,-0.26962 -0.41237,-0.41237 -0.682,-0.31721 -0.26963,0.11103 -0.41238,0.41238 -0.31721,0.68201 0.0476,0.11102 0.0793,0.23791 0.12688,0.36479 h -8.18404 c -1.47503,0 -1.99843,-0.82475 -1.99843,-1.58605 v -6.20148 c 0.22205,-0.0634 0.39652,-0.26963 0.39652,-0.50753 0,-0.23791 -0.15861,-0.4441 -0.39652,-0.50754 v -0.34893 c 0.0476,0.0159 0.0952,0.0159 0.14275,0.0159 z m 9.86526,12.92634 -1.03094,-1.33229 c -0.0952,-0.12688 -0.25377,-0.20618 -0.42823,-0.20618 h -1.0468 c -0.30135,0 -0.53926,0.2379 -0.53926,0.53925 v 0.99922 h -6.97864 v -1.60192 c 0,-0.65028 0.34894,-1.11023 0.66615,-1.11023 h 1.33228 8.92949 c 0,0 0,0 0,0 0,0 0,0 0,0 h 19.08023 c 0.26963,0 0.55512,0.33307 0.63442,0.82474 -3.31485,-0.0159 -6.67729,-0.0159 -9.97628,0 -0.30135,0 -0.53926,0.23791 -0.5234,0.53926 0,0.30135 0.23791,0.5234 0.53926,0.5234 0,0 0,0 0,0 3.31485,-0.0159 6.67729,-0.0159 10.008,0 v 0.82475 z"
       style="fill:#5c1814;stroke-width:0.158605"
       id="path79" />
    <path
       class="st1"
       d="m 188.38196,140.73395 c -1.09438,-0.0317 -2.23634,-0.0317 -3.299,0 -0.30135,0 -0.52339,0.25377 -0.52339,0.55512 0,0.28549 0.2379,0.5234 0.53925,0.5234 0,0 0.0159,0 0.0159,0 1.0468,-0.0317 2.1729,-0.0317 3.25142,0 0,0 0.0159,0 0.0159,0 0.28549,0 0.52339,-0.22205 0.53925,-0.5234 0,-0.30135 -0.2379,-0.53926 -0.53925,-0.55512 z"
       style="fill:#5b5050;stroke-width:0.158605"
       id="path81" />
    <path
       d="m -140.53412,122.49163 h 5.08703 v 1.658 h -5.08703 z"
       class="st0"
       style="fill:#acd36e;stroke-width:0.188408"
       id="path83" />
    <path
       class="st0"
       d="m -143.00227,114.59732 c -0.35797,0 -0.64059,-0.28261 -0.62174,-0.64059 0,-0.35797 0.28261,-0.62175 0.64058,-0.62175 0,0 0,0 0,0 6.48125,0.0377 13.01902,0.0377 19.46259,0 -0.28261,-1.1116 -1.28118,-1.9406 -2.48699,-1.9406 h -23.96555 c -1.20581,0 -2.20437,0.829 -2.48699,1.9406 0.90436,0.0189 1.82756,0.0189 2.73192,0.0189 0.35798,0 0.64059,0.28261 0.64059,0.64058 0,0.35798 -0.28261,0.64059 -0.64059,0.64059 0,0 0,0 0,0 -0.90436,0 -1.80872,0 -2.71308,-0.0188 0.28262,1.11161 1.30002,1.92177 2.48699,1.92177 h 1.41307 21.10173 1.41307 c 1.20581,0 2.20437,-0.829 2.48699,-1.94061 -3.10874,0.0188 -6.23632,0.0188 -9.3639,0.0188 -3.37251,0.0188 -6.74502,0 -10.09869,-0.0188 z m -2.46815,0 c -0.62174,0 -1.26233,0.0188 -1.88408,0.0188 0,0 0,0 0,0 -0.33914,0 -0.62175,-0.28261 -0.64059,-0.62175 0,-0.35797 0.28261,-0.64058 0.62175,-0.64058 0.62175,0 1.26233,-0.0189 1.86524,-0.0189 0,0 0,0 0,0 0.33914,0 0.62175,0.28262 0.64059,0.62175 0.0188,0.35798 -0.24493,0.64059 -0.60291,0.64059 z"
       style="fill:#acd36e;stroke-width:0.188408"
       id="path85" />
    <path
       class="st0"
       d="m -126.81799,147.11661 c 0,2.09133 -1.69567,3.787 -3.78701,3.787 h -14.79005 c -2.09134,0 -3.78701,-1.69567 -3.78701,-3.787 v -1.28118 h 3.07105 2.43047 11.34219 2.43046 3.07106 v 1.28118 z"
       style="fill:#24ff3d;stroke-width:0.188408"
       id="path87" />
    <path
       class="st0"
       d="m -150.4444,137.67735 h -4.72905 v -0.90436 c 0,-1.30002 1.07393,-2.37395 2.37395,-2.37395 h 2.3551 z"
       style="fill:#acd36e;stroke-width:0.188408"
       id="path89" />
    <path
       class="st0"
       d="m -120.80776,137.67735 h -4.61601 c -0.0377,0 -0.0754,0 -0.11304,0.0188 V 134.399 h 2.3551 c 1.30002,0 2.37395,1.07393 2.37395,2.37395 z"
       style="fill:#acd36e;stroke-width:0.188408"
       id="path91" />
    <path
       class="st1"
       d="m -123.9165,132.59032 h -2.3551 v -3.74933 c 0.5087,-0.64058 0.81015,-1.45074 0.81015,-2.31742 v -7.81895 c 0,-0.56522 -0.16957,-1.09277 -0.47102,-1.5261 1.73336,-0.37682 3.03338,-1.90293 3.03338,-3.74933 0,0 0,0 0,0 0,0 0,0 0,0 0,0 0,0 0,0 0,-2.11017 -1.71452,-3.82469 -3.84353,-3.82469 h -23.94671 c -2.11017,0 -3.82469,1.71452 -3.84353,3.82469 0,0 0,0 0,0 0,0 0,0 0,0 0,0 0,0 0,0 0,1.8464 1.30002,3.37251 3.03338,3.74933 -0.30146,0.43333 -0.47103,0.96088 -0.47103,1.5261 v 7.81895 c 0,0.86668 0.30146,1.67684 0.81016,2.31742 v 3.74933 h -2.37395 c -2.01596,0 -3.63628,1.63915 -3.63628,3.63628 v 7.98852 c 0,1.95944 1.58263,3.54207 3.54208,3.54207 h 2.60004 c 0.52754,2.22322 2.52467,3.88122 4.91745,3.88122 h 14.79006 c 2.37395,0 4.38992,-1.658 4.91746,-3.88122 h 2.60004 c 1.95944,0 3.54207,-1.58263 3.54207,-3.54207 v -7.98852 c -0.0188,-1.99713 -1.63915,-3.63628 -3.65512,-3.63628 z m -27.26269,13.90454 h -2.44931 c -1.26234,0 -2.27974,-1.01741 -2.27974,-2.27974 v -5.80298 h 4.72905 z m 0,-9.3639 h -4.72905 v -0.90436 c 0,-1.30002 1.07393,-2.37394 2.37394,-2.37394 h 2.35511 z m 23.64525,9.43926 c 0,2.09133 -1.69568,3.78701 -3.78701,3.78701 h -14.79006 c -2.09133,0 -3.787,-1.69568 -3.787,-3.78701 v -1.28118 h 3.07105 2.43047 11.34218 2.43047 3.0899 z m -22.38291,-2.54351 v -10.7958 -3.33483 c 0.0754,0.0377 0.15072,0.0754 0.22609,0.11305 0.0188,0.0188 0.0565,0.0188 0.0754,0.0377 0.0754,0.0377 0.15073,0.0565 0.24493,0.0942 0.0188,0 0.0565,0.0188 0.0754,0.0188 0.0942,0.0377 0.18841,0.0565 0.30146,0.0754 0.0377,0 0.0565,0.0188 0.0942,0.0188 0.0942,0.0188 0.20725,0.0377 0.30145,0.0565 0.0189,0 0.0377,0 0.0754,0 0.11304,0.0188 0.22609,0.0188 0.33913,0.0188 h 0.71595 v 13.69729 z m 3.71164,0 v -13.71613 h 1.16813 v 13.71613 z m 7.47981,-7.91315 -5.04934,-3.24063 v -2.56235 h 10.07985 v 2.56235 z m 5.03051,-1.73336 v 4.97398 l -3.86238,-2.48699 z m -6.19864,2.48699 -3.86237,2.48699 v -4.97398 z m 1.16813,0.75363 5.04935,3.24063 v 3.16526 h -10.07985 v -3.14642 z m 6.31168,6.40589 v -13.71613 h 1.16814 v 13.71613 z m 4.87978,-10.7958 v 10.7958 h -2.44931 v -13.71613 h 0.71595 c 0.11305,0 0.22609,0 0.33914,-0.0188 0.0188,0 0.0377,0 0.0754,0 0.11305,-0.0188 0.20725,-0.0188 0.30145,-0.0565 0.0377,0 0.0565,-0.0188 0.0942,-0.0188 0.0942,-0.0188 0.18841,-0.0377 0.30145,-0.0754 0.0188,0 0.0565,-0.0188 0.0754,-0.0188 0.0754,-0.0188 0.16956,-0.0565 0.24493,-0.0942 0.0188,-0.0188 0.0565,-0.0188 0.0754,-0.0377 0.0754,-0.0377 0.15073,-0.0754 0.22609,-0.11304 z m 0.79132,-6.70734 c 0,0.67827 -0.26378,1.28118 -0.69712,1.73336 -0.0377,0.0377 -0.0565,0.0565 -0.0942,0.0942 -0.0377,0.0377 -0.0565,0.0565 -0.0942,0.0942 -0.0377,0.0377 -0.0754,0.0565 -0.0942,0.0754 -0.0377,0.0188 -0.0565,0.0565 -0.0942,0.0754 -0.0377,0.0188 -0.0754,0.0565 -0.13189,0.0754 -0.0377,0.0188 -0.0565,0.0377 -0.0942,0.0565 -0.0565,0.0188 -0.0942,0.0565 -0.15073,0.0754 -0.0188,0.0188 -0.0565,0.0188 -0.0754,0.0377 -0.0565,0.0188 -0.11305,0.0565 -0.18841,0.0754 -0.0188,0 -0.0377,0.0188 -0.0565,0.0188 -0.0754,0.0188 -0.13189,0.0377 -0.20725,0.0565 -0.0188,0 -0.0188,0 -0.0377,0.0188 -0.0754,0.0188 -0.15073,0.0188 -0.22609,0.0377 -0.0189,0 -0.0189,0 -0.0377,0 -0.0942,0 -0.16956,0.0188 -0.26377,0.0188 h -1.35654 -2.43047 -11.34218 -2.43047 -1.35654 c -0.0942,0 -0.16957,0 -0.26377,-0.0188 -0.0188,0 -0.0188,0 -0.0377,0 -0.0754,0 -0.15073,-0.0188 -0.22609,-0.0377 -0.0188,0 -0.0188,0 -0.0377,-0.0188 -0.0754,-0.0188 -0.13189,-0.0377 -0.20725,-0.0565 -0.0188,0 -0.0377,-0.0188 -0.0565,-0.0188 -0.0565,-0.0188 -0.11304,-0.0377 -0.1884,-0.0754 -0.0188,-0.0188 -0.0565,-0.0188 -0.0754,-0.0377 -0.0565,-0.0188 -0.0942,-0.0565 -0.15072,-0.0754 -0.0377,-0.0188 -0.0565,-0.0377 -0.0942,-0.0565 -0.0377,-0.0188 -0.0754,-0.0565 -0.11304,-0.0754 -0.0377,-0.0188 -0.0565,-0.0565 -0.0942,-0.0754 -0.0377,-0.0188 -0.0754,-0.0565 -0.0942,-0.0754 -0.0377,-0.0188 -0.0565,-0.0565 -0.0942,-0.0942 -0.0377,-0.0377 -0.0565,-0.0565 -0.0942,-0.0942 -0.43334,-0.45218 -0.69711,-1.05509 -0.69711,-1.73336 v -7.81895 c 0,-0.79131 0.64059,-1.4319 1.4319,-1.4319 h 21.10174 c 0.79132,0 1.4319,0.64059 1.4319,1.4319 v 7.81895 z m -0.0189,-10.53203 h -1.41306 -21.10174 -1.41306 c -1.18697,0 -2.20438,-0.82899 -2.48699,-1.92176 0.90436,0.0188 1.82756,0.0188 2.71308,0.0188 0,0 0,0 0,0 0.35798,0 0.64059,-0.28261 0.64059,-0.64059 0,-0.35798 -0.28261,-0.64059 -0.64059,-0.64059 -0.90436,0 -1.80872,0 -2.73192,-0.0188 0.28261,-1.11161 1.28118,-1.94061 2.48699,-1.94061 h 23.9467 c 1.20582,0 2.20438,0.829 2.48699,1.94061 -6.44356,0.0377 -13.00017,0.0377 -19.46258,0 0,0 0,0 0,0 -0.33913,0 -0.64059,0.28261 -0.64059,0.62175 0,0.35797 0.28261,0.64059 0.62175,0.64059 3.35367,0.0188 6.72618,0.0188 10.11753,0.0188 3.12758,0 6.25516,0 9.36389,-0.0188 -0.28261,1.11161 -1.28117,1.9406 -2.48699,1.9406 z m 5.21892,28.22358 c 0,1.26233 -1.01741,2.27974 -2.27975,2.27974 h -2.4493 v -8.10156 c 0.0377,0 0.0754,0.0188 0.11304,0.0188 h 4.61601 z m 0,-7.08416 h -4.61601 c -0.0377,0 -0.0754,0 -0.11304,0.0188 v -3.29714 h 2.3551 c 1.30002,0 2.37395,1.07392 2.37395,2.37394 z"
       style="fill:#ff3366;stroke-width:0.188408"
       id="path93" />
    <path
       class="st1"
       d="m -136.1442,120.66407 h -5.18123 c -0.67827,0 -1.22466,0.54638 -1.22466,1.22465 v 1.7522 c 0,0.67827 0.54639,1.22466 1.22466,1.22466 h 5.18123 c 0.67827,0 1.22465,-0.54639 1.22465,-1.22466 v -1.7522 c 0,-0.67827 -0.54638,-1.22465 -1.22465,-1.22465 z m -0.0377,2.92033 h -5.08703 v -1.65799 h 5.08703 z"
       style="fill:#5b5050;stroke-width:0.188408"
       id="path95" />
    <path
       class="st1"
       d="m -146.20521,112.7886 c 0,0 -0.0188,0 0,0 -0.62175,0 -1.26234,0.0188 -1.88408,0.0188 -0.35798,0 -0.64059,0.28261 -0.62175,0.64059 0,0.33913 0.28261,0.62175 0.64059,0.62175 0,0 0,0 0,0 0.62175,0 1.26233,-0.0188 1.88408,-0.0188 0.35798,0 0.62175,-0.30146 0.62175,-0.64059 -0.0188,-0.33914 -0.30145,-0.62175 -0.64059,-0.62175 z"
       style="fill:#5b5050;stroke-width:0.188408"
       id="path97" />
    <path
       class="st0"
       d="m 95.377003,70.463656 c 2.092134,-1.297653 4.793367,-2.039169 7.679987,-2.039169 2.86013,0 5.58785,0.715034 7.67998,2.039169 -1.16524,0.556137 -2.19806,1.297652 -3.09847,2.224547 -0.053,0.05297 -0.10594,0.105931 -0.13242,0.132414 -0.053,0.05297 -0.13241,0.132413 -0.18538,0.185379 -0.0794,0.07945 -0.15889,0.158896 -0.21186,0.238344 -0.0265,0.02648 -0.053,0.05297 -0.0794,0.105931 -1.27117,-0.29131 -2.5953,-0.423723 -3.94592,-0.423723 -1.35062,0 -2.67475,0.132413 -3.945923,0.423723 -0.02648,-0.02648 -0.05297,-0.05297 -0.07945,-0.105931 -0.07945,-0.07945 -0.132414,-0.158896 -0.211862,-0.238344 -0.05297,-0.07945 -0.132413,-0.132414 -0.185379,-0.211862 -0.05297,-0.05297 -0.10593,-0.105931 -0.132413,-0.132414 -0.97986,-0.873929 -2.012686,-1.641927 -3.151442,-2.198064 z"
       style="fill:#ff7369;stroke-width:0.264827"
       id="path99" />
    <path
       class="st0"
       d="m 123.26329,72.132066 c -4.66095,0 -8.44798,3.787027 -8.44798,8.447984 0,4.660956 3.78703,8.447983 8.44798,8.447983 4.66096,0 8.44799,-3.787027 8.44799,-8.447983 0,-4.634474 -3.78703,-8.447984 -8.44799,-8.447984 z m 0,4.078337 c -2.40992,0 -4.36964,1.95972 -4.36964,4.369647 0,0.767998 0.21186,1.509514 0.58262,2.171581 0.23834,0.423724 0.10593,0.979861 -0.3178,1.218205 -0.13241,0.07945 -0.29131,0.105931 -0.4502,0.105931 -0.3178,0 -0.60911,-0.158897 -0.768,-0.450206 -0.52966,-0.926895 -0.82097,-1.986203 -0.82097,-3.045511 0,-3.389787 2.75421,-6.170471 6.17047,-6.170471 0.50318,0 0.90042,0.397241 0.90042,0.900412 -0.053,0.503171 -0.45021,0.900412 -0.9269,0.900412 z"
       style="fill:#30f5ff;stroke-width:0.264827"
       id="path101" />
    <path
       class="st0"
       d="m 82.8242,72.132066 c -4.660956,0 -8.447983,3.787027 -8.447983,8.447984 0,4.660956 3.787027,8.447983 8.447983,8.447983 4.660956,0 8.447983,-3.787027 8.447983,-8.447983 0,-4.634474 -3.787027,-8.447984 -8.447983,-8.447984 z m 5.323024,11.519977 c -0.158896,0.29131 -0.476689,0.450206 -0.767998,0.450206 -0.158897,0 -0.29131,-0.02648 -0.450206,-0.10593 -0.423724,-0.238345 -0.58262,-0.794482 -0.317793,-1.218205 0.370758,-0.662068 0.58262,-1.403583 0.58262,-2.171582 0,-2.409926 -1.959721,-4.369646 -4.369647,-4.369646 -0.503171,0 -0.900412,-0.397241 -0.900412,-0.900412 0,-0.503172 0.397241,-0.900412 0.900412,-0.900412 3.389787,0 6.170471,2.754201 6.170471,6.17047 -0.02648,1.059308 -0.29131,2.118617 -0.847447,3.045511 z"
       style="fill:#33f8ff;stroke-width:0.264827"
       id="path103" />
    <path
       class="st1"
       d="m 81.791375,69.589727 c -5.640817,0 -10.248808,4.581508 -10.248808,10.248807 0,5.640816 4.581509,10.248807 10.248808,10.248807 5.640816,0 10.248807,-4.581508 10.248807,-10.248807 0,-5.667299 -4.607991,-10.248807 -10.248807,-10.248807 z m 0,18.69679 c -4.660957,0 -8.447984,-3.787027 -8.447984,-8.447983 0,-4.660956 3.787027,-8.447983 8.447984,-8.447983 4.660956,0 8.447983,3.787027 8.447983,8.447983 0,4.660956 -3.787027,8.447983 -8.447983,8.447983 z"
       style="fill:#5b5050;stroke-width:0.264827"
       id="path105" />
    <path
       class="st1"
       d="m 81.791375,73.668063 c -0.503172,0 -0.900412,0.397241 -0.900412,0.900412 0,0.503172 0.39724,0.900412 0.900412,0.900412 2.409926,0 4.369646,1.959721 4.369646,4.369647 0,0.767998 -0.211861,1.509514 -0.582619,2.171582 -0.238345,0.423723 -0.105931,0.97986 0.317792,1.218204 0.132414,0.07945 0.29131,0.105931 0.450206,0.105931 0.317793,0 0.609102,-0.158896 0.767999,-0.450206 0.529654,-0.926895 0.820963,-1.986203 0.820963,-3.045511 0,-3.416269 -2.754201,-6.170471 -6.143987,-6.170471 z"
       style="fill:#5b5050;stroke-width:0.264827"
       id="path107" />
    <path
       class="st1"
       d="m 122.23047,64.822839 c -3.97241,0 -7.57406,1.56248 -10.27529,4.078337 -0.0794,0.02648 -0.1589,0.02648 -0.23835,0.05297 -2.48937,-1.959721 -5.98509,-3.071994 -9.69267,-3.071994 -3.707577,0 -7.229777,1.112273 -9.692668,3.071994 -0.07945,-0.02648 -0.158897,-0.05297 -0.238345,-0.05297 -2.674753,-2.515857 -6.302884,-4.078337 -10.27529,-4.078337 -8.262604,0 -15.015694,6.726608 -15.015694,15.015695 0,8.262604 6.726607,15.015694 15.015694,15.015694 3.972406,0 7.574054,-1.56248 10.27529,-4.078337 2.383444,-0.556136 4.555026,-1.906754 6.091023,-3.813509 0.503171,-0.635585 0.953377,-1.297653 1.324135,-2.012686 0,0 0,0 0.02648,0 h 4.899305 c 0.053,0 0.10593,0 0.13241,-0.02648 0.37076,0.715033 0.79448,1.403584 1.32414,2.039169 1.56248,1.906755 3.70758,3.257373 6.09102,3.813509 2.67475,2.515857 6.30288,4.078337 10.27529,4.078337 8.2626,0 15.01569,-6.726607 15.01569,-15.015694 -0.0265,-8.289087 -6.75309,-15.015695 -15.04217,-15.015695 z m -18.379,11.599426 h -3.70758 C 99.905546,75.654266 99.56127,74.91275 99.16403,74.2242 c 0.92689,-0.158896 1.85379,-0.238344 2.83365,-0.238344 0.95338,0 1.90675,0.07945 2.83365,0.238344 -0.39724,0.68855 -0.71503,1.430066 -0.97986,2.198065 z m -9.507293,-6.726608 c 2.092134,-1.297652 4.79337,-2.039168 7.679983,-2.039168 2.86013,0 5.58785,0.715033 7.67999,2.039168 -1.16524,0.556137 -2.19807,1.297653 -3.09848,2.224548 -0.053,0.05297 -0.10593,0.10593 -0.13241,0.132413 -0.053,0.05297 -0.13242,0.132414 -0.18538,0.185379 -0.0794,0.07945 -0.1589,0.158896 -0.21186,0.238344 -0.0265,0.02648 -0.053,0.05297 -0.0794,0.105931 -1.27117,-0.291309 -2.59531,-0.423723 -3.94593,-0.423723 -1.35061,0 -2.674749,0.132414 -3.945918,0.423723 -0.02648,-0.02648 -0.05297,-0.05297 -0.07945,-0.105931 -0.07945,-0.07945 -0.132413,-0.158896 -0.211861,-0.238344 -0.05297,-0.07945 -0.132414,-0.132413 -0.185379,-0.211862 -0.05297,-0.05297 -0.105931,-0.10593 -0.132414,-0.132413 -0.953377,-0.873929 -2.012685,-1.641928 -3.151442,-2.198065 z M 68.550022,79.838534 c 0,-7.282744 5.932126,-13.214871 13.21487,-13.214871 7.282744,0 13.21487,5.932127 13.21487,13.214871 0,7.282744 -5.932126,13.21487 -13.21487,13.21487 -7.256261,0 -13.21487,-5.932126 -13.21487,-13.21487 z m 25.953052,7.997777 c 1.350618,-2.145099 2.145099,-4.581508 2.277512,-7.150331 0,-0.05297 0,-0.10593 0,-0.158896 0,-0.238344 0.02648,-0.476689 0.02648,-0.68855 0,-0.238345 0,-0.476689 -0.02648,-0.688551 0,-0.05297 0,-0.10593 0,-0.158896 -0.132413,-2.568822 -0.926894,-5.005231 -2.277512,-7.123848 0.07945,0.05297 0.132413,0.07945 0.211861,0.132414 0.07945,0.05297 0.185379,0.105931 0.264827,0.185379 0.05297,0.05296 0.132414,0.105931 0.185379,0.132413 2.303996,1.747859 3.760544,4.528543 3.760544,7.547571 0,3.257373 -1.747858,6.249919 -4.422611,7.971295 z m 5.693786,-4.713922 c 0.31779,-1.059308 0.50317,-2.171582 0.50317,-3.310338 0,-0.556137 -0.053,-1.085791 -0.13242,-1.641928 h 2.88662 c -0.0794,0.529654 -0.13242,1.085791 -0.13242,1.641928 0,1.138756 0.1589,2.25103 0.50318,3.310338 z m 4.8993,-3.283855 c 0,-3.019029 1.45654,-5.799713 3.76054,-7.547571 0.053,-0.05297 0.13241,-0.105931 0.18538,-0.132414 0.0795,-0.05297 0.1589,-0.105931 0.26483,-0.185379 0.0794,-0.05297 0.13241,-0.07945 0.21186,-0.132413 -1.35062,2.118616 -2.11862,4.555025 -2.27751,7.123847 0,0.05297 0,0.105931 0,0.158897 0,0.238344 -0.0265,0.476688 -0.0265,0.68855 0,0.238344 0,0.476689 0.0265,0.68855 0,0.05297 0,0.105931 0,0.158897 0.13241,2.568822 0.92689,5.005231 2.27751,7.15033 -2.67476,-1.694893 -4.42261,-4.687439 -4.42261,-7.971294 z m 17.13431,13.21487 c -7.07089,0 -12.84412,-5.561368 -13.21487,-12.552803 0,0 0,0 0,0 0,-0.211861 -0.0265,-0.450206 -0.0265,-0.68855 0,-7.282744 5.93213,-13.21487 13.21487,-13.21487 7.28275,0 13.21487,5.932126 13.21487,13.21487 0.053,7.309227 -5.90564,13.241353 -13.18838,13.241353 z"
       style="fill:#5b5050;stroke-width:0.264827"
       id="path109" />
    <path
       class="st1"
       d="m 122.23047,69.589727 c -5.64082,0 -10.24881,4.581508 -10.24881,10.248807 0,5.640816 4.58151,10.248807 10.24881,10.248807 5.64081,0 10.2488,-4.581508 10.2488,-10.248807 0,-5.667299 -4.60799,-10.248807 -10.2488,-10.248807 z m 0,18.69679 c -4.66096,0 -8.44799,-3.787027 -8.44799,-8.447983 0,-4.660956 3.78703,-8.447983 8.44799,-8.447983 4.66095,0 8.44798,3.787027 8.44798,8.447983 0.0265,4.660956 -3.78703,8.447983 -8.44798,8.447983 z"
       style="fill:#5b5050;stroke-width:0.264827"
       id="path111" />
    <path
       class="st1"
       d="m 122.23047,73.668063 c -3.38979,0 -6.17047,2.754202 -6.17047,6.170471 0,1.059308 0.29131,2.118616 0.82096,3.045511 0.1589,0.29131 0.47669,0.450206 0.768,0.450206 0.15889,0 0.29131,-0.02648 0.4502,-0.105931 0.42373,-0.238344 0.58262,-0.794481 0.3178,-1.218204 -0.37076,-0.662068 -0.58262,-1.403584 -0.58262,-2.171582 0,-2.409926 1.95972,-4.369647 4.36964,-4.369647 0.50318,0 0.90042,-0.39724 0.90042,-0.900412 0.0265,-0.503171 -0.37076,-0.900412 -0.87393,-0.900412 z"
       style="fill:#5b5050;stroke-width:0.264827"
       id="path113" />
    <path
       d="M 83.986986,173.31518"
       style="fill:#5b5050;fill-opacity:1;stroke:#ff4d9d;stroke-width:0.264583;stroke-opacity:1;paint-order:stroke"
       id="path115" />
    <path
       d="M 58.860695,180.29471"
       style="fill:#5c1814;fill-opacity:1;stroke:#000000;stroke-width:0;stroke-opacity:1;paint-order:fill"
       id="path117" />
  </g>
</svg>
